# xmcd
#
# Track frame offsets:
# 150
# 13721
# 31648
# 44089
# 59371
# 93622
# 106478
# 122908
# 135837
# 148683
# 157721
# 183069
# 198549
# 210328
# 221864
# 235406
# 249922
# 261354
# 281857
# 295855
# 309646
# 324434
# 336123
# 347431
# 349190
#
# Disc length: 4707 seconds
#
# Revision: 0
# Processed by: cddbd v1.4PL0 Copyright (c) Steve Scherf et al.
# Submitted via: Axialis_AX_CDPlayer 2.6
#
DISCID=7a126119
DTITLE=Canned Heat - UnCanned, CD 2
DYEAR=1900
DGENRE=
TTITLE0=Evil woman
TTITLE1=amine Annie
TTITLE2=An Owl song
TTITLE3=Terraplane blues
TTITLE4=Christmas blues
TTITLE5=Going up the country
TTITLE6=Time was
TTITLE7=Low down
TTITLE8=Same all over
TTITLE9=Big fat
TTITLE10=It's all right
TTITLE11=Poor moon
TTITLE12=Sugar bee
TTITLE13=Shake it and break it
TTITLE14=Future blues
TTITLE15=Let's work together
TTITLE16=Wooly bully
TTITLE17=Human condition
TTITLE18=Long way from LA
TTITLE19=Hill's stomp
TTITLE20=Rocking with the king
TTITLE21=Harley Davidson Blues
TTITLE22=Rock and Roll music
TTITLE23=It's Music City
TTITLE24=Huh
EXTD=
EXTT0=
EXTT1=
EXTT2=
EXTT3=
EXTT4=
EXTT5=
EXTT6=
EXTT7=
EXTT8=
EXTT9=
EXTT10=
EXTT11=
EXTT12=
EXTT13=
EXTT14=
EXTT15=
EXTT16=
EXTT17=
EXTT18=
EXTT19=
EXTT20=
EXTT21=
EXTT22=
EXTT23=
EXTT24=
PLAYORDER=
